<svg width="36" height="36" viewBox="0 0 36 36" fill="none" xmlns="http://www.w3.org/2000/svg">
<path d="M33.0652 22.4764C33.9944 22.7556 34.9833 22.2294 35.1683 21.2769C35.7595 18.2335 35.5366 15.0764 34.5067 12.1301C33.2829 8.62889 30.9824 5.60486 27.9348 3.49111C24.8872 1.37737 21.2488 0.282358 17.5408 0.362934C13.8328 0.44351 10.2454 1.69554 7.29249 3.93967C4.33958 6.18381 2.17265 9.30492 1.10209 12.8559C0.0315346 16.407 0.112271 20.2057 1.33274 23.708C2.55321 27.2104 4.85079 30.2366 7.89638 32.3532C10.4594 34.1345 13.4414 35.1947 16.532 35.44C17.4992 35.5168 18.2711 34.7049 18.2509 33.7349C18.2308 32.7648 17.4252 32.0062 16.4602 31.9052C14.1129 31.6597 11.8551 30.8256 9.9016 29.468C7.46512 27.7746 5.62706 25.3537 4.65068 22.5518C3.67431 19.7499 3.60972 16.711 4.46617 13.8701C5.32262 11.0293 7.05616 8.53244 9.41849 6.73713C11.7808 4.94182 14.6507 3.9402 17.6171 3.87574C20.5835 3.81127 23.4943 4.68728 25.9323 6.37828C28.3704 8.06927 30.2108 10.4885 31.1898 13.2894C31.9748 15.5351 32.1738 17.9338 31.7818 20.2612C31.6207 21.218 32.1359 22.1972 33.0652 22.4764Z" fill="#E81504"/>
</svg>
